<svg data-v-fde0c5aa="" xmlns="http://www.w3.org/2000/svg" viewBox="0 0 300 300" class="iconAbove"><!----><defs data-v-fde0c5aa=""><!----></defs><rect data-v-fde0c5aa="" fill="transparent" x="0" y="0" width="300px" height="300px" class="logo-background-square"></rect><defs data-v-fde0c5aa=""><linearGradient data-v-fde0c5aa="" gradientTransform="rotate(25)" id="9ec4ee94-85d7-45f7-ab82-207dab6e45b5" x1="0%" y1="0%" x2="100%" y2="0%"><stop data-v-fde0c5aa="" offset="0%" stop-color="#363f93" stop-opacity="1"></stop><stop data-v-fde0c5aa="" offset="100%" stop-color="#9BC9D2" stop-opacity="1"></stop></linearGradient></defs><g data-v-fde0c5aa="" id="5371b9d3-73c6-4269-af9c-d3b0e73997e3" fill="url(#9ec4ee94-85d7-45f7-ab82-207dab6e45b5)" transform="matrix(2.3129615619266795,0,0,2.3129615619266795,19.32924109741052,176.647895879292)"><path d="M0.29 10.50L6.82 10.50L7.11 9.04L2.44 9.04L2.95 6.34L6.93 6.34L7.21 4.89L3.25 4.89L3.74 2.34L8.12 2.34L8.41 0.88L2.16 0.88ZM14.36 10.50L16.28 10.50L14.24 6.62L17.58 3.00L15.57 3.00L13.45 5.47L12.19 3.00L10.30 3.00L12.24 6.61L8.72 10.50L10.68 10.50L13.03 7.74ZM25.10 6.90C25.49 5.00 25.23 2.84 22.89 2.84C21.77 2.84 20.90 3.33 20.36 4.14C20.43 3.75 20.50 3.32 20.54 3.00L18.72 3.00C18.63 3.63 18.58 3.99 18.45 4.65L16.65 13.82L18.52 13.82L19.21 10.22L19.39 9.21C19.68 10.08 20.47 10.64 21.60 10.64C23.46 10.64 24.57 9.53 25.10 6.90ZM23.20 6.92C22.81 8.82 22.25 9.38 21.24 9.38C19.75 9.38 19.67 7.95 19.89 6.64C20.20 4.79 21.06 4.10 22.08 4.10C23.58 4.10 23.45 5.68 23.20 6.92ZM29.18 10.64C31.02 10.64 31.91 9.93 32.52 8.71L30.94 8.20C30.67 8.88 30.17 9.39 29.34 9.39C28.42 9.39 27.85 8.65 28 7.29L28.01 7.14L33.01 7.14C33.11 6.66 33.18 6.08 33.18 5.66C33.18 3.98 32.23 2.86 30.14 2.86C27.64 2.86 26.40 4.41 26.15 6.78C25.90 9.09 26.70 10.64 29.18 10.64ZM30.10 4.00C30.76 4.00 31.53 4.33 31.50 5.53C31.50 5.63 31.50 5.77 31.49 5.91L28.17 5.91C28.45 4.45 29.25 4.00 30.10 4.00ZM38.77 10.50L40.59 10.50L41.47 5.98C41.82 4.19 41.52 2.86 39.47 2.86C38.30 2.86 37.44 3.39 36.89 4.35L37.06 3.00L35.29 3.00C35.27 3.28 35.18 3.98 35.06 4.59L33.89 10.50L35.73 10.50L36.44 6.75C36.74 5.17 37.60 4.23 38.67 4.23C40.07 4.23 39.82 5.32 39.61 6.30ZM48.50 8.79C48.75 7.18 47.74 6.71 46.19 6.03C44.95 5.50 44.90 5.03 44.95 4.70C45.02 4.30 45.40 4.07 45.95 4.07C46.48 4.07 47.15 4.23 47.33 4.98L48.89 4.69C48.64 3.57 47.57 2.86 45.96 2.86C44.30 2.86 43.40 3.67 43.27 4.66C43.13 5.74 43.55 6.64 45.22 7.36C46.38 7.87 46.84 8.09 46.80 8.64C46.76 9.16 46.41 9.45 45.50 9.45C44.42 9.45 44.06 8.85 43.90 8.27L42.25 8.57C42.42 9.65 43.26 10.64 45.49 10.64C47.12 10.64 48.30 10.02 48.50 8.79ZM52.89 10.64C54.74 10.64 55.62 9.93 56.24 8.71L54.66 8.20C54.39 8.88 53.89 9.39 53.06 9.39C52.14 9.39 51.56 8.65 51.72 7.29L51.73 7.14L56.73 7.14C56.83 6.66 56.90 6.08 56.90 5.66C56.90 3.98 55.94 2.86 53.86 2.86C51.35 2.86 50.12 4.41 49.87 6.78C49.62 9.09 50.41 10.64 52.89 10.64ZM53.82 4.00C54.47 4.00 55.24 4.33 55.22 5.53C55.22 5.63 55.22 5.77 55.20 5.91L51.88 5.91C52.16 4.45 52.96 4.00 53.82 4.00ZM67.34 2.34L70.31 2.34L70.59 0.88L62.85 0.88L62.58 2.34L65.48 2.34L63.87 10.50L65.74 10.50ZM75.11 4.47L75.42 2.87C75.26 2.86 74.94 2.86 74.93 2.86C73.89 2.86 73.02 3.56 72.56 4.49C72.66 3.96 72.77 3.28 72.81 3.00L71.06 3.00C71.02 3.40 70.94 3.95 70.81 4.59L69.65 10.50L71.47 10.50L72.18 6.85C72.48 5.28 73.25 4.42 74.47 4.42C74.79 4.42 74.93 4.44 75.11 4.47ZM82.53 9.37L81.87 9.37C81.58 9.37 81.38 9.25 81.47 8.86L82.11 5.66C82.40 4.27 81.96 2.86 79.52 2.86C77.70 2.86 76.71 3.70 76.38 4.83L78.04 5.12C78.26 4.27 78.95 4.12 79.38 4.12C80.22 4.12 80.61 4.65 80.47 5.38L80.32 6.12L79.10 6.12C77.35 6.15 75.67 6.48 75.33 8.09C75.05 9.41 75.75 10.64 77.45 10.64C78.50 10.64 79.30 10.22 79.76 9.45C79.69 10.08 80.07 10.64 81.14 10.64C81.70 10.64 81.98 10.61 82.29 10.58ZM78.12 9.39C77.31 9.39 76.92 8.85 77.06 8.11C77.22 7.24 78.06 7.13 79.11 7.11L80.12 7.11L80.05 7.50C79.84 8.54 79.14 9.39 78.12 9.39ZM86.77 10.64C88.61 10.64 89.84 9.67 90.29 8.23L88.56 7.90C88.28 8.79 87.82 9.25 86.95 9.25C85.72 9.25 85.46 7.99 85.74 6.38C85.99 4.94 86.56 4.13 87.58 4.13C88.24 4.13 88.79 4.48 88.93 5.45L90.78 5.05C90.61 3.81 89.56 2.86 87.72 2.86C86.13 2.86 84.28 3.57 83.83 6.44C83.48 8.68 84.14 10.64 86.77 10.64ZM95.97 10.50L97.92 10.50L95.91 5.96L99.26 3.00L97.15 3.00L93.80 6.17L95.10-0.48L93.28-0.48L91.15 10.50L92.97 10.50L93.55 7.62L94.56 7.03ZM102.21 10.64C104.06 10.64 104.94 9.93 105.56 8.71L103.98 8.20C103.71 8.88 103.21 9.39 102.38 9.39C101.46 9.39 100.88 8.65 101.04 7.29L101.05 7.14L106.05 7.14C106.15 6.66 106.22 6.08 106.22 5.66C106.22 3.98 105.27 2.86 103.18 2.86C100.67 2.86 99.44 4.41 99.19 6.78C98.94 9.09 99.74 10.64 102.21 10.64ZM103.14 4.00C103.80 4.00 104.57 4.33 104.54 5.53C104.54 5.63 104.54 5.77 104.52 5.91L101.21 5.91C101.49 4.45 102.28 4.00 103.14 4.00ZM112.39 4.47L112.70 2.87C112.55 2.86 112.22 2.86 112.21 2.86C111.17 2.86 110.31 3.56 109.84 4.49C109.94 3.96 110.05 3.28 110.10 3.00L108.35 3.00C108.30 3.40 108.22 3.95 108.09 4.59L106.93 10.50L108.75 10.50L109.47 6.85C109.76 5.28 110.53 4.42 111.75 4.42C112.07 4.42 112.21 4.44 112.39 4.47Z"></path></g><defs data-v-fde0c5aa=""><linearGradient data-v-fde0c5aa="" gradientTransform="rotate(25)" id="e04a49c1-f869-45ec-b61e-fa39043da050" x1="0%" y1="0%" x2="100%" y2="0%"><stop data-v-fde0c5aa="" offset="0%" stop-color="#363F93" stop-opacity="1"></stop><stop data-v-fde0c5aa="" offset="100%" stop-color="#ABD8E0" stop-opacity="1"></stop></linearGradient></defs><g data-v-fde0c5aa="" id="43f7e5a4-e45c-4385-b0e0-f5f5fdd3d14f" stroke="none" fill="url(#e04a49c1-f869-45ec-b61e-fa39043da050)" transform="matrix(0.8491419293723936,0,0,0.8491419293723936,109.66618390725947,84.1285027384673)"><path d="M79.7 38.672a1.392 1.392 0 0 0 1.392-1.392V33h6.982a1.392 1.392 0 0 0 1.392-1.392V26.4a1.392 1.392 0 0 0-1.391-1.4h-2.716l-37.3-16.335a1.394 1.394 0 0 0-1.118 0L9.641 25H6.925a1.392 1.392 0 0 0-1.392 1.4v5.211A1.392 1.392 0 0 0 6.925 33h6.982v4.28a1.392 1.392 0 0 0 1.393 1.392h.649V70H15.3a1.392 1.392 0 0 0-1.392 1.392v4.283H6.925a1.392 1.392 0 0 0-1.392 1.392v7.993a1.392 1.392 0 0 0 1.392 1.391h81.149a1.392 1.392 0 0 0 1.392-1.391v-7.992a1.392 1.392 0 0 0-1.392-1.392h-6.981v-4.283A1.392 1.392 0 0 0 79.7 70h-.648V38.672zm-1.39-2.783h-8.076V33h8.076zm8.374-5.675h-23.39a15.879 15.879 0 0 0-.632-2.428h24.022zM43.462 75.676v-2.891h8.075v2.891zM45.5 70V48.933a14.609 14.609 0 0 0 3.992 0V70zm2-23.714a13.271 13.271 0 1 1 13.271-13.27A13.285 13.285 0 0 1 47.5 46.287zm0-34.828L78.42 25H61.39a16.017 16.017 0 0 0-27.78 0H16.58zM8.316 27.786h24.022a15.879 15.879 0 0 0-.632 2.428H8.316zM24.767 33v2.891H16.69V33zm-2.042 5.674V70h-3.994V38.672zm2.783 0h.65a1.392 1.392 0 0 0 1.392-1.394V33h3.9v.019a16.083 16.083 0 0 0 11.271 15.325V70h-.651a1.392 1.392 0 0 0-1.391 1.392v4.283H27.55v-4.282A1.392 1.392 0 0 0 26.158 70h-.65zM16.69 72.785h8.077v2.891H16.69zm69.993 10.884H8.316v-5.21h78.367zm-16.449-7.993v-2.891h8.076v2.891zM68.843 70a1.392 1.392 0 0 0-1.392 1.392v4.283H54.32v-4.282A1.392 1.392 0 0 0 52.929 70h-.65V48.344a16.083 16.083 0 0 0 11.276-15.327V33h3.9v4.28a1.392 1.392 0 0 0 1.392 1.392h.65V70zm7.427 0h-3.994V38.672h3.994zM46.082 30.206a1.42 1.42 0 0 0 1.418 1.419 1.374 1.374 0 0 1 .281.029 4.18 4.18 0 0 1 1.111 8.12v1.468a1.392 1.392 0 1 1-2.784 0v-1.468a4.194 4.194 0 0 1-2.808-3.947 1.392 1.392 0 1 1 2.783 0 1.418 1.418 0 1 0 1.417-1.418 1.374 1.374 0 0 1-.281-.029 4.18 4.18 0 0 1-1.111-8.12v-1.468a1.392 1.392 0 0 1 2.784 0v1.468a4.2 4.2 0 0 1 2.808 3.946 1.392 1.392 0 1 1-2.783 0 1.418 1.418 0 0 0-2.836 0z"></path></g><!----></svg>