<svg data-v-423bf9ae="" xmlns="http://www.w3.org/2000/svg" viewBox="0 0 322.9102401497692 60" class="font"><!----><!----><defs data-v-423bf9ae=""><linearGradient data-v-423bf9ae="" gradientTransform="rotate(25)" id="71f43b30-cc67-48f4-a57f-e687ad5a35bc" x1="0%" y1="0%" x2="100%" y2="0%"><stop data-v-423bf9ae="" offset="0%" style="stop-color: rgb(13, 124, 233); stop-opacity: 1;"></stop><stop data-v-423bf9ae="" offset="100%" style="stop-color: rgb(21, 207, 241); stop-opacity: 1;"></stop></linearGradient></defs><g data-v-423bf9ae="" id="7e06d254-8e47-4bc1-bdce-f8f6e6b7c76c" fill="url(#71f43b30-cc67-48f4-a57f-e687ad5a35bc)" transform="matrix(6.19195073253312,0,0,6.19195073253312,-8.730646380501184,-20.43343783735981)"><path d="M1.41 4.03L2.53 4.03L2.53 8.11L6.47 4.03L7.99 4.03L4.14 7.99L8.23 12.84L6.80 12.84L3.40 8.76L2.53 9.66L2.53 12.84L1.41 12.84L1.41 4.03ZM12.35 5.98L12.35 5.98L12.35 5.98Q13.75 5.98 14.61 6.89L14.61 6.89L14.61 6.89Q15.47 7.80 15.47 9.49L15.47 9.49L15.47 9.49Q15.47 11.17 14.61 12.08L14.61 12.08L14.61 12.08Q13.75 12.99 12.35 12.99L12.35 12.99L12.35 12.99Q10.95 12.99 10.09 12.08L10.09 12.08L10.09 12.08Q9.23 11.17 9.23 9.49L9.23 9.49L9.23 9.49Q9.23 7.80 10.09 6.89L10.09 6.89L10.09 6.89Q10.95 5.98 12.35 5.98ZM14.35 9.49L14.35 9.49L14.35 9.49Q14.35 8.29 13.85 7.61L13.85 7.61L13.85 7.61Q13.34 6.93 12.37 6.93L12.37 6.93L12.37 6.93Q11.40 6.93 10.88 7.61L10.88 7.61L10.88 7.61Q10.36 8.29 10.36 9.49L10.36 9.49L10.36 9.49Q10.36 10.68 10.85 11.36L10.85 11.36L10.85 11.36Q11.34 12.04 12.31 12.04L12.31 12.04L12.31 12.04Q13.29 12.04 13.82 11.36L13.82 11.36L13.82 11.36Q14.35 10.68 14.35 9.49ZM21.97 7.14L21.97 7.14L21.97 3.30L23.06 3.30L23.06 12.84L22.16 12.84L22.02 11.72L22.02 11.72Q21.70 12.35 21.17 12.67L21.17 12.67L21.17 12.67Q20.64 12.99 20.01 12.99L20.01 12.99L20.01 12.99Q18.73 12.99 17.87 12.01L17.87 12.01L17.87 12.01Q17.01 11.03 17.01 9.46L17.01 9.46L17.01 9.46Q17.01 7.88 17.86 6.93L17.86 6.93L17.86 6.93Q18.70 5.98 20.00 5.98L20.00 5.98L20.00 5.98Q21.29 5.98 21.97 7.14ZM20.06 6.96L20.06 6.96L20.06 6.96Q19.25 6.96 18.70 7.64L18.70 7.64L18.70 7.64Q18.14 8.33 18.14 9.48L18.14 9.48L18.14 9.48Q18.14 10.63 18.70 11.32L18.70 11.32L18.70 11.32Q19.26 12.01 20.05 12.01L20.05 12.01L20.05 12.01Q20.83 12.01 21.39 11.49L21.39 11.49L21.39 11.49Q21.94 10.96 21.97 10.08L21.97 10.08L21.97 8.99L21.97 8.99Q21.97 8.05 21.42 7.50L21.42 7.50L21.42 7.50Q20.87 6.96 20.06 6.96ZM28.21 12.10L28.21 12.10L28.21 12.10Q29.60 12.10 29.79 10.88L29.79 10.88L30.93 10.88L30.93 10.88Q30.77 11.89 30.04 12.44L30.04 12.44L30.04 12.44Q29.30 12.99 28.21 12.99L28.21 12.99L28.21 12.99Q26.87 12.99 26.03 12.03L26.03 12.03L26.03 12.03Q25.19 11.07 25.19 9.48L25.19 9.48L25.19 9.48Q25.19 7.88 26.03 6.93L26.03 6.93L26.03 6.93Q26.88 5.98 28.29 5.98L28.29 5.98L28.29 5.98Q29.69 5.98 30.39 7.07L30.39 7.07L30.39 7.07Q31.08 8.16 30.87 9.73L30.87 9.73L26.29 9.73L26.29 9.73Q26.29 10.77 26.80 11.43L26.80 11.43L26.80 11.43Q27.30 12.10 28.21 12.10ZM29.02 7.03L29.02 7.03L29.02 7.03Q28.70 6.86 28.24 6.86L28.24 6.86L28.24 6.86Q27.38 6.86 26.89 7.44L26.89 7.44L26.89 7.44Q26.39 8.02 26.31 8.89L26.31 8.89L29.88 8.89L29.88 8.89Q29.88 7.49 29.02 7.03ZM34.22 4.03L34.22 11.87L38.14 11.87L38.14 12.84L33.11 12.84L33.11 4.03L34.22 4.03ZM43.81 9.35L43.81 8.50L43.81 8.50Q43.81 7.59 43.43 7.20L43.43 7.20L43.43 7.20Q43.05 6.80 42.33 6.80L42.33 6.80L42.33 6.80Q41.61 6.80 41.17 7.09L41.17 7.09L41.17 7.09Q40.73 7.38 40.73 7.99L40.73 7.99L39.51 7.99L39.51 7.99Q39.51 6.45 41.16 6.09L41.16 6.09L41.16 6.09Q41.66 5.98 42.25 5.98L42.25 5.98L42.25 5.98Q43.50 5.98 44.20 6.61L44.20 6.61L44.20 6.61Q44.90 7.24 44.90 8.53L44.90 8.53L44.90 12.84L43.95 12.84L43.83 11.72L43.83 11.72Q43.22 12.99 41.61 12.99L41.61 12.99L41.61 12.99Q40.53 12.99 39.88 12.39L39.88 12.39L39.88 12.39Q39.23 11.79 39.23 10.89L39.23 10.89L39.23 10.89Q39.23 10.00 39.95 9.49L39.95 9.49L39.95 9.49Q40.67 8.99 41.75 8.99L41.75 8.99L41.75 8.99Q42.83 8.99 43.81 9.35L43.81 9.35ZM43.81 10.05L43.81 10.05L43.81 10.05Q42.81 9.77 42.07 9.77L42.07 9.77L42.07 9.77Q41.33 9.77 40.87 10.04L40.87 10.04L40.87 10.04Q40.40 10.30 40.40 10.88L40.40 10.88L40.40 10.88Q40.40 12.14 41.83 12.14L41.83 12.14L41.83 12.14Q42.64 12.14 43.23 11.56L43.23 11.56L43.23 11.56Q43.81 10.98 43.81 10.05ZM48.61 3.30L48.61 7.14L48.61 7.14Q49.28 5.98 50.57 5.98L50.57 5.98L50.57 5.98Q51.86 5.98 52.71 6.94L52.71 6.94L52.71 6.94Q53.56 7.90 53.56 9.47L53.56 9.47L53.56 9.47Q53.56 11.05 52.70 12.02L52.70 12.02L52.70 12.02Q51.83 12.99 50.58 12.99L50.58 12.99L50.58 12.99Q49.91 12.99 49.37 12.66L49.37 12.66L49.37 12.66Q48.83 12.32 48.52 11.66L48.52 11.66L48.27 12.84L47.50 12.84L47.50 3.30L48.61 3.30ZM50.50 6.96L50.50 6.96L50.50 6.96Q49.70 6.96 49.17 7.47L49.17 7.47L49.17 7.47Q48.64 7.98 48.61 8.89L48.61 8.89L48.61 9.98L48.61 9.98Q48.61 10.91 49.16 11.46L49.16 11.46L49.16 11.46Q49.71 12.01 50.50 12.01L50.50 12.01L50.50 12.01Q51.28 12.01 51.86 11.32L51.86 11.32L51.86 11.32Q52.43 10.63 52.43 9.48L52.43 9.48L52.43 9.48Q52.43 8.33 51.86 7.64L51.86 7.64L51.86 7.64Q51.30 6.96 50.50 6.96Z"></path></g><!----><!----></svg>